<?xml version="1.0" encoding="UTF-8"?>
<svg version="1.1" viewBox="0 0 1290 1326" width="1290" height="1326" xmlns="http://www.w3.org/2000/svg">
<path transform="translate(172,23)" d="m0 0 4 2 1 3h2l7 8 11 11 5 4v2l4 2 9 9 10 8 13 10 19 12 23 13 45 25 13 8v-2l-5-11-5-12 5 1 24 14 33 22 12 9 4 2-1-8-2-6 6 2 23 12 15 6 4 1-7-8-4-4v-2l-3-1v-1l41-4h12l10 1-9-8-7-4v-2l3-1h50l21 2h3l-10-11v-1h11l19 3 23 6 17 6 14 7 10 7 4 3 7-6 13-8 11-5 26-8 26-5h13l-2 4-4 2-2 4-2 3 13-2 10-1h34l18 1v3l-5 3-2 3-3 1-2 3 26 1 31 2 3 2-7 8-4 7 5-2 6-2 33-16 3-1-4 10v5l17-12 15-11 17-10 13-8 12-7 4-1-3 9-3 8-3 7 22-12 23-13 23-12 13-8 17-11 19-14 12-11 8-7 11-10 7-8 9-10 2 3 6 14 12 36 5 19 5 25 1 2 2 17 1 3 1 22v35l-1 20-3 17-5 23-7 24-1 3h4l7-5 7-7 5-2-1 7-6 17-2 5h-2l-3 9-3 7-2 1-2 9-5 5-1 2 6-3 7-6-1 7-8 20-9 19-11 17-9 12h4l5 5 12 11 10 11 11 16v2l2 1 1 4h2l2 6h2l2 6 9 15h-3-2v-2l-4-1-13-5h-2l5 5v2h2l8 11 2 4h2l7 8 9 8 10 7 16 8 20 8 10 2-1 3-18 10-11 5-15 5-5 1h-7l6 11 9 17 2 4v3l2 1-1 2 2 1 5 17 2 6 5 22 1 11 2 1 1 6 1 8-2 4-5-3-7-8-4-4h-4v5l2 1v3l2 1 6 12 4 5 2 5 3 1 2 5h2l6 7 4 2 4 5 5 2v2l4 1 3 3 16 9-1 3-18 6h-4v2l-12 1h-25l-10-1-6-2-7-1 2 4 7 10 11 14 9 9 9 7h2l4 4 15 9v2h-36l-22-4-20-6-10-4 2 21v33l-3 32-1 5v3h-2l1 5-3 12-2 9h-2l1 4-3 7-5 16v3h-2v6l-4 8-5 14-2 1-5-30-8-24v-3l-2-1-2-6-4-8-3 28-2 10-2 9-3 9v2h-2v5l-1 3h-2l-1 7h-2l-1 5-6 12-2 5h-2l-2 7-2 2 1 2-3 1-5 9-3 5-6 7-2 5-5 5-10 13-2 1v-12l2-26v-15l-1-12-1-2-1-14-6-28-2-7v-4l-2 1-6 29-1 8-3 5-3 10-2 5h-2v5l-3 3-4 8v3l-4 7-4 3-2 4-4 3-2 4-3 3-1 2-6 5h-2l2-13 1-7 2-7 1-13v-22h-2l1 4h-2l-1 7-2 5-2 1 1 3h-2v5l-2 4-2 1-1 5-3 5v2h-2l-1 3-3 3-6 8-6 9-24 24-10 8-4 2v2l-6 4-5 5h-4l1-8h2l-1-3 1-5 2-3 3-12v-10h2l-1-24-2-18-7 2-5 3-10 10-5 10-2 5-3 7-2 7 1 2-2 3-1 4h-2l1 4-1 5-2 20h-1v23l-2 2-4-4-2-5h-1v-5l-2-1-5-12-2-4v-3h-2l-1-5-1 1-3 9 1 4h-2l-1 4v3h-2l1 5v4l-1 7-1 1v8l1 5 1 6-1 3h2v6l1 3 1 9 1 3-1 3h2l1 9 3 11 2 5-2 2-9-8-12-9-5-4-1-1-1 7-1 2v4h-2l1 5-3 11-3 10-2 6h-2l-1 5-5 14h-2v2h-2l-1-6 1-2v-8l-2-6 1-5-1-1-7 18-7 12-3 6-2 3h-2l-1 4-3 2-1 3-4 4-2 1-1 4-3 1-4 4-8 7-5 3 1-10 3-12-1-6-2 3h-2v3l-5 5-5 6h-2l-2 4-5 4-1 2h-2v2l-14 10-10 6v2l-5-1 8-14 2-6-7 4-6 7-7 8-7 11-5 10-4 10h-2l-2 5-2-2-5-13-9-16-6-8-4-4v-2h-2l-7-8h-3l1 3 2 2v3l1 5h2v3l3 1-6 3-1-2-3-1-5-5-4-2v-2l-6-2-7-8-5-3-1-3h-2l-3-4v-2h-2l-4-5-2-1-3-5-3-1-1-4v7l1 9 2 1-1 3 2 1 2 9-4-1-2-2-2-1v-2h-2l-7-8-6-5-3-3v-2h-2l-7-7-2-5-5-8-8-15-4-10 1-2h-3v27h-4l-1-4v-2l-2-6v-2l-2-1-3-6-3-11-2-5-2-9 1-2-2-1-1-7h-1v-6l-1-2-4 1-5 6h-3l1 3h-3l-2 2-5 3-7 7-2-2 2-6-1-2h2l4-13 3-16 1-9 1-4 2-12v-18l-4-18-5-16h-2l1 4-2 7-7 15-8 16h-2l-1-6v-23l-1-5v-6l-1-2-1-8-7-25v-2h-2l-3-8-4-6-4-4-7-8-2 1-2-3h-6l-3 16v24l3 19 3 9-1 2 2 1-1 2 2 1 1 4v4l-4-2-1-3-4-1-7-5v-2l-5-2-5-4-1-2h-2l-5-5v-2l-6-3-5-6-2-5h-2l-12-16-8-11h-1l-2-6-5-11v-2l-2-1-6-16-2-7v31l2 14 4 17h-3l-6-5-4-4-3-6-7-9-4-6-8-16-3-3v-5l-2-1-1-5-2-2-2-9-5-19-3-14v-4h-2l-2 11-7 36v13l-1 2v34l1 4v7l1 3-1 6h2l-1 6-4-2-2-4-5-6-2-2-4-7-2-1v-3h-2l-3-6h-2l-1-3-2-4-5-8-3-2 1-3h-2l-3-9-4-2-3-10-3-6-6-16-2-7-1-3-2-2-1-9-1-6-2-11-1-2v-7l-1-3v-6l-1-2-4 8-2 6-3 5-1 6-3 7-4 16-3 20-2 4-1-7-2-1-3-10-6-16-6-18-4-18-1-4-2-6-1-8-1-5-3-26-1-44 1-5 3-12-19 7-7 2-2 1-13 2-18 2h-23l-7-1 5-4 15-10 12-10h2l1-3 5-5 9-10 10-15 1-2-13 3-4 1-6 2-33-1v-2l-6 1-10-4-13-5 1-3 17-8 11-8 2-2 7-6 3-3h2l2-4 4-6h2l2-5 6-10 8-16 2-7-4 3h-2v2h-2l-2 4h-2l-1 3h-2l-3 6h-2l-2 4-3 1 1-11 2-15 3-13v-3h2l1-8 5-18 2-6 5-10 8-17 9-14-16-2-15-5-16-8-12-7v-2l16-4 20-8 6-4h2l1-2 4-3 5-1v-2l5-3 4-4h2l1-3h2l2-4 4-5 4-4-1-2h2l1-2 5-5 5-7-19 8h-3l16-28 2-5 3-3 5-8h2l2-4 8-10 9-9 10-8 5-2-5-6-3-1-1-3-2-4-2-2-2-1-1-4-9-16-6-15-5-10v-4l-2-1-2-9 7 4h2l-3-8v-2h-2l-3-6-2-7-3-8v-2l-2-1-4-10v-3l-2-1-2-9 5 3 13 10 7 4-1-5-6-18-2-5-6-36-2-20v-46l1-3 2-27v-3h2l-1-6h2l1-11 7-31 7-22v-3h2l1-5z" fill="#c9a227"/>
<path transform="translate(605,949)" d="m0 0h9l11 4 7 5v2l3 1v2h2l7 14 4 15 7-21 7-10 7-6 11-5 5-1h8l10 4 5 3 3 5v12l-3 15-6 16-6 9-9 10-7 4-12 5-11 2h-12l-16-2-7-2v-2l-5-1-10-6-7-7-6-10-6-17-2-9v-16l3-5 9-6z" fill="#c9a227"/>
<path transform="translate(545,1078)" d="m0 0h2l5 5 8 4 14 2 6 5 10 5 28 6 8 1h41l20-2 6-2 15-3 11-6 6-4 12-2 10-6 2-3h2l-2 5h-2l-2 5-9 9-13 8-17 8-22 5-22 2h-28l-21-2-15-3-14-5-16-8-9-6-12-13z" fill="#c9a227"/>
</svg>
