<?xml version="1.0" encoding="UTF-8"?>
<svg version="1.1" viewBox="0 0 1290 1326" width="1290" height="1326" xmlns="http://www.w3.org/2000/svg">
<path transform="translate(172,23)" d="m0 0 4 2 1 3h2l7 8 11 11 5 4v2l4 2 9 9 10 8 13 10 19 12 23 13 45 25 13 8v-2l-5-11-5-12 5 1 24 14 33 22 12 9 4 2-1-8-2-6 6 2 23 12 15 6 4 1-7-8-4-4v-2l-3-1v-1l41-4h12l10 1-9-8-7-4v-2l3-1h50l21 2h3l-10-11v-1h11l19 3 23 6 17 6 14 7 10 7 4 3 7-6 13-8 11-5 26-8 26-5h13l-2 4-4 2-2 4-2 3 13-2 10-1h34l18 1v3l-5 3-2 3-3 1-2 3 26 1 31 2 3 2-7 8-4 7 5-2 6-2 33-16 3-1-4 10v5l17-12 15-11 17-10 13-8 12-7 4-1-3 9-3 8-3 7 22-12 23-13 23-12 13-8 17-11 19-14 12-11 8-7 11-10 7-8 9-10 2 3 6 14 12 36 5 19 5 25 1 2 2 17 1 3 1 22v35l-1 20-3 17-5 23-7 24-1 3h4l7-5 7-7 5-2-1 7-6 17-2 5h-2l-3 9-3 7-2 1-2 9-5 5-1 2 6-3 7-6-1 7-8 20-9 19-11 17-9 12h4l5 5 12 11 10 11 11 16v2l2 1 1 4h2l2 6h2l2 6 9 15h-3-2v-2l-4-1-13-5h-2l5 5v2h2l8 11 2 4h2l7 8 9 8 10 7 16 8 20 8 10 2-1 3-18 10-11 5-15 5-5 1h-7l6 11 9 17 2 4v3l2 1-1 2 2 1 5 17 2 6 5 22 1 11 2 1 1 6 1 8-2 4-5-3-7-8-4-4h-4v5l2 1v3l2 1 6 12 4 5 2 5 3 1 2 5h2l6 7 4 2 4 5 5 2v2l4 1 3 3 16 9-1 3-18 6h-4v2l-12 1h-25l-10-1-6-2-7-1 2 4 7 10 11 14 9 9 9 7h2l4 4 15 9v2h-36l-22-4-20-6-10-4 2 21v33l-3 32-1 5v3h-2l1 5-3 12-2 9h-2l1 4-3 7-5 16v3h-2v6l-4 8-5 14-2 1-5-30-8-24v-3l-2-1-2-6-4-8-3 28-2 10-2 9-3 9v2h-2v5l-1 3h-2l-1 7h-2l-1 5-6 12-2 5h-2l-2 7-2 2 1 2-3 1-5 9-3 5-6 7-2 5-5 5-10 13-2 1v-12l2-26v-15l-1-12-1-2-1-14-6-28-2-7v-4l-2 1-6 29-1 8-3 5-3 10-2 5h-2v5l-3 3-4 8v3l-4 7-4 3-2 4-4 3-2 4-3 3-1 2-6 5h-2l2-13 1-7 2-7 1-13v-22h-2l1 4h-2l-1 7-2 5-2 1 1 3h-2v5l-2 4-2 1-1 5-3 5v2h-2l-1 3-3 3-6 8-6 9-24 24-10 8-4 2v2l-6 4-5 5h-4l1-8h2l-1-3 1-5 2-3 3-12v-10h2l-1-24-2-18-7 2-5 3-10 10-5 10-2 5-3 7-2 7 1 2-2 3-1 4h-2l1 4-1 5-2 20h-1v23l-2 2-4-4-2-5h-1v-5l-2-1-5-12-2-4v-3h-2l-1-5-1 1-3 9 1 4h-2l-1 4v3h-2l1 5v4l-1 7-1 1v8l1 5 1 6-1 3h2v6l1 3 1 9 1 3-1 3h2l1 9 3 11 2 5-2 2-9-8-12-9-5-4-1-1-1 7-1 2v4h-2l1 5-3 11-3 10-2 6h-2l-1 5-5 14h-2v2h-2l-1-6 1-2v-8l-2-6 1-5-1-1-7 18-7 12-3 6-2 3h-2l-1 4-3 2-1 3-4 4-2 1-1 4-3 1-4 4-8 7-5 3 1-10 3-12-1-6-2 3h-2v3l-5 5-5 6h-2l-2 4-5 4-1 2h-2v2l-14 10-10 6v2l-5-1 8-14 2-6-7 4-6 7-7 8-7 11-5 10-4 10h-2l-2 5-2-2-5-13-9-16-6-8-4-4v-2h-2l-7-8h-3l1 3 2 2v3l1 5h2v3l3 1-6 3-1-2-3-1-5-5-4-2v-2l-6-2-7-8-5-3-1-3h-2l-3-4v-2h-2l-4-5-2-1-3-5-3-1-1-4v7l1 9 2 1-1 3 2 1 2 9-4-1-2-2-2-1v-2h-2l-7-8-6-5-3-3v-2h-2l-7-7-2-5-5-8-8-15-4-10 1-2h-3v27h-4l-1-4v-2l-2-6v-2l-2-1-3-6-3-11-2-5-2-9 1-2-2-1-1-7h-1v-6l-1-2-4 1-5 6h-3l1 3h-3l-2 2-5 3-7 7-2-2 2-6-1-2h2l4-13 3-16 1-9 1-4 2-12v-18l-4-18-5-16h-2l1 4-2 7-7 15-8 16h-2l-1-6v-23l-1-5v-6l-1-2-1-8-7-25v-2h-2l-3-8-4-6-4-4-7-8-2 1-2-3h-6l-3 16v24l3 19 3 9-1 2 2 1-1 2 2 1 1 4v4l-4-2-1-3-4-1-7-5v-2l-5-2-5-4-1-2h-2l-5-5v-2l-6-3-5-6-2-5h-2l-12-16-8-11h-1l-2-6-5-11v-2l-2-1-6-16-2-7v31l2 14 4 17h-3l-6-5-4-4-3-6-7-9-4-6-8-16-3-3v-5l-2-1-1-5-2-2-2-9-5-19-3-14v-4h-2l-2 11-7 36v13l-1 2v34l1 4v7l1 3-1 6h2l-1 6-4-2-2-4-5-6-2-2-4-7-2-1v-3h-2l-3-6h-2l-1-3-2-4-5-8-3-2 1-3h-2l-3-9-4-2-3-10-3-6-6-16-2-7-1-3-2-2-1-9-1-6-2-11-1-2v-7l-1-3v-6l-1-2-4 8-2 6-3 5-1 6-3 7-4 16-3 20-2 4-1-7-2-1-3-10-6-16-6-18-4-18-1-4-2-6-1-8-1-5-3-26-1-44 1-5 3-12-19 7-7 2-2 1-13 2-18 2h-23l-7-1 5-4 15-10 12-10h2l1-3 5-5 9-10 10-15 1-2-13 3-4 1-6 2-33-1v-2l-6 1-10-4-13-5 1-3 17-8 11-8 2-2 7-6 3-3h2l2-4 4-6h2l2-5 6-10 8-16 2-7-4 3h-2v2h-2l-2 4h-2l-1 3h-2l-3 6h-2l-2 4-3 1 1-11 2-15 3-13v-3h2l1-8 5-18 2-6 5-10 8-17 9-14-16-2-15-5-16-8-12-7v-2l16-4 20-8 6-4h2l1-2 4-3 5-1v-2l5-3 4-4h2l1-3h2l2-4 4-5 4-4-1-2h2l1-2 5-5 5-7-19 8h-3l16-28 2-5 3-3 5-8h2l2-4 8-10 9-9 10-8 5-2-5-6-3-1-1-3-2-4-2-2-2-1-1-4-9-16-6-15-5-10v-4l-2-1-2-9 7 4h2l-3-8v-2h-2l-3-6-2-7-3-8v-2l-2-1-4-10v-3l-2-1-2-9 5 3 13 10 7 4-1-5-6-18-2-5-6-36-2-20v-46l1-3 2-27v-3h2l-1-6h2l1-11 7-31 7-22v-3h2l1-5zm907 115m-898-75-7 21-7 30-4 27-2 23v34l3 30 6 28 10 31 7 15 11 19 9 12-16-8-10-7h-2v-2l-5-3 1 5 7 15 8 14 13 16 3 1v2l4 4-12-4-13-6-2 1 10 14 6 7h2v2l5 5 11 9 6 3h2l-1 2-16 8-14 8-12 11-7 6v2l6-2 15-6 23-6 9-1-17 11-14 12-10 9-18 18v2h-2l-9 12 2 1 22-12 18-8 6-1-23 23-14 11-15 10-13 8-18 8-13 4 3 2 8 1h19l20-4 15-6-5 5-8 7-10 10-9 10-12 16-13 22-7 16 1 4 4-6 9-10 11-11 8-7 13-11 11-7h4l-8 10-16 24-7 15-6 15-14 36-8 16-9 15-9 11-6 8 2 1 18-6 16-8 13-9 8-6v-2l4-2 12-12v-2h2l7-8 8-7 1-1-1 5-21 45-11 23-12 21-10 13 2 1 21-11 19-14 11-9 10-9-5 13-7 19-5 19-4 21-2 22v18l2 23 4 23 2 2 4-24 10-36 8-21 14-27 8-11-1 4-7 23-5 21 1 4 6-10 9-10v-2h2l16-16 8-7 10-8-2 6-13 26-9 23-5 16-5 23-2 23v16l2 19 4 17 7 20 5 10h1l1-34 3-27 5-23 7-23 9-21 8-16 9-15 10-13 9-10 2-1v-2l3-1 2-2-9 27-5 23-2 15v31l3 15 2 2 8-23 11-21 10-14 7-9 1-3h2l-6 27-2 14v40l3 20 8 31 7 17 4 5v-23l2-19 6-26 7-20 3-6v44l1 7 2 1 3-25 4-16 10-30 12-25 2-4-5 2-11 7-12 11-4 4v2l-4 2-10 14-3 5v-37l3-23 6-23 7-20 5-12-1-2-11 9-8 8-8 10-10 15 3-11 7-22-1-2-3 3v2l-3 1-13 17-5 9-5 11 2-16 6-21 8-17 10-16 3-4-6 2-19 11-12 9-13 10v2l-4 2-16 16v2h-2l-7 9 4-19 9-26 8-16 9-16 9-12 1-2-5 2-19 11-12 9-11 9-3 2v2l-4 2-7 7 2-9 8-21 11-21 8-12 5-7-1-2-13 11-10 9-13 13-5 7 2-9 10-20 11-18-1-2-2 1 10-19 14-23 9-15 6-9-1-2-12 10-12 9-11 8-18 13-15 10-17 13-8 8 6-11 10-16 11-14 14-17v-2h2l7-8v-2l4-2 5-6-9 3-19 9-12 8 7-9 13-17 8-11 9-10 5-5 11-12 7-7 8-7 11-9 5-5-6 2-16 8-14 9-16 12-12 11-13 13-9 11-11 13-18 24-11 13-4 4 15-36 8-16 1-4-20 15-13 12h-1l12-23 6-8 3-5 11-13 1-3 4-2 11-12 3-3-11 3-25 9h-3l10-9 11-9 13-12 3-2v-2l4-2 7-7 11-9 10-9 8-7 4-4-7 1-15 6-14 6-16 8-3 1 9-12 8-9v-2l3-1 7-8 2-1v-2l4-2 15-13 10-7 14-9 8-4v-1l-18 1-15 3 1-1 7-5 9-5 11-7 24-11 16-5 19-5 16-3 1-2-9-2h-40l15-9 19-10 21-8 25-7 11-3v-1l-16-3-18-6-17-7-16-11-4-4h3 22l18-4 26-7 5-1-5-4-11-8-11-11-8-7-13-10-15-11-4-3h-3v-2l25 6 12 4h3l-10-10-1-2h-2l-2-4-8-8h-2l-2-4-10-8-18-13-14-10-21-14-13-9-14-10-17-14-11-9-6-5 2 4 10 15 10 13 10 11 7 8 7 6v2l-4-1 5 5 11 8 10 7 12 7 19 9h2v2l-17-3-6-1h-13l4 3 25 13 1 1-10-1-17-1-21 3-4 2 25 5 18 7 17 9 18 13 15 11 3 2-5 1-33-2-25-4-9-3 2 6 11 16 3 4h2l2 4 7 7 15 10 9 5-4 1h-11l-17-2 4 4 7 4-5 4-16 9-10 7-8 5v1l17-1 11-2-9 7-9 6-14 5-16 2-9-1 13-3v-2l-14-8-11-9-9-9 18 3h11l-3-5-13-16-11-16-9-17-7-16-5-17 1 1 8 12 5 6h2l1 3 15 10 3 1-2-5-9-16-8-17-6-20 1-1 10 15 8 8 1-2-5-10-8-22-6-29-1-7-2 1-1 4-1 18-1 2-9-25-5-21-3-16-2 2-1 16v37l2 30 2 12v5l-8-21-7-24-4-28-1-16v-21l1-20 3-21 4-17 4-13v-4l7 6 9 11 13 13 11 9 14 12 17 12 20 14 14 10 16 12 10 8h3l-10-13-11-12v-2l16 11 20 14 8 7h2v2l8 7 5 4 7 8 12 14 7 10 2 2-1-5-13-23-5-7v-2l5 5 3 1 1 3h2v2l8 7 11 11 10 13 7 9 1-2-15-33-5-10 16 12 3 3h2l2 4 10 9 18 18 3 1 2 4 11 11-1-10-8-24-4-9 6 5h2v2l8 7 3 3h2v2l8 7 10 9 4 4h2l-2-6-22-44 4 2 10 6 25 11 13 7 7 5 2-1-8-10-3-4h-2l-2-4-14-15-3-4 25 6 18 6 19 10 6 3-2-4-10-15-9-10-5-7 10 3 19 9 16 10 8 7h2l2 4 3 1-2-6-12-20-7-9v-2l15 9 10 8 10 9h2l2 5 5 4-3-10-8-16 8 6 5 4 7 8 7 10 7 13 3-3 6-12 9-12 2-4 4-2 10-8-2 4-8 18 1 3 12-13 13-10 15-9 1 1-9 14-9 16-1 4 3-1 5-5 8-7 13-8 17-9 10-3h4l-5 5-9 10-9 13-3 4 1 2 8-5 17-8 19-6 22-4-7 7-7 8-9 10-8 10v2l5-2 25-13 19-9 11-8-9 19-15 30v3l13-12 4-3v-2h2v-2l4-2 10-10 13-9-7 16-6 20-1 7 7-6 12-13 1-3 4-2 4-4v-2l4-2 1-3 4-2 11-10 14-11 3-2v-2l2 1-11 22-9 21 1 2 7-9 8-11 11-12 3-2v-2h2v-2l4-2 8-8 4-2-6 8-12 22-1 6 4-5 10-13 11-12 15-15 10-8 13-10 10-7 13-9-1 3-5 5-12 15-2 5 3-1v-2l6-3v-2l5-2 12-9 28-20 16-11 13-10 13-11 11-9 13-13 9-11 4-5 6 19 5 24 2 18v49l-4 28-6 21-7 20-2 5v3h-2l3-14 2-19 1-36-1-28-1-8-2 1-5 27-6 20-6 16-2-21-2-6h-1l-4 26-3 12-6 17-6 13 1 2 7-6 11-16-4 16-6 15-12 23-2 4 6-2 10-7 8-8 10-14-7 22-14 28-14 19-10 12v2h-2v2l-2 1 2 1 17-2 12-3v2l-4 2-5 6-2 1v2l-4 2-11 7-7 4 1 3 8 2h4v2h-12l-16-2-12-5-18-12h3l16 2h9l-5-4-12-7-8-6-15-9 12-7-3-1-12 2h-11l-6-1 16-9 11-9 12-13 13-20-2-1-16 5-22 3-28 1-5-1 11-8 13-10 15-10 12-6 18-7 17-4 10-2-3-2-18-2h-16l-18 2 17-9 17-8v-1h-13l-24 4v-2l6-2 15-8 11-6 9-6 15-11 5-4-6 1h-2l9-9 5-4 9-11 10-12 14-21-1-2-13 13-8 7-13 10-10 7-13 9-11 7-14 10-18 13-13 10-10 9-8 7-10 10-6 7-2 1 1 2 16-6 17-4h5l-10 6-16 13-10 8-13 12-10 9-9 5 1 2 36 10 10 2h22l4-1v2h-2v2l-4 2-6 5-10 6-16 7-22 6-10 2 1 2 24 6 13 4 11 5 12 5 15 8 13 8h-37l-11 2 3 2 16 3 19 5 10 3 14 7 19 9 13 8 10 7-15-3h-17l4 3 12 7 14 10 13 11 8 7 12 12 11 14 7 7-5-2-12-6-26-11-9-3-3 1 5 5 14 12 12 11 8 7 13 12 8 7 12 10h2v2l7 6-15-6-24-8-2 1 10 9 3 4h2l2 4 5 6h2l2 4 9 12 10 17 6 12-1 1-10-10-12-9-9-7-2 1 8 15 10 23 5 13-1 1-11-14-9-11-6-7-1-3-5-5-11-14-9-11h-2l-2-4-8-8h-2l-2-4-8-7-10-8-15-10-19-10-6-3-2 1 13 11 13 12 16 16 7 8 11 13 8 11 10 12 5 7-9-6-28-13-3 1 21 21 9 11 9 12 10 14 10 16v2l-5-5-10-8-12-9-19-13-14-10-19-14-10-7v3l14 24 11 18 9 19-1 3 10 16 7 15 5 15-1-1-10-13-13-13-14-11-4-2 6 8 8 13 9 19 8 20 3 11-10-10-14-11-14-10-15-9-7-3 2 4 10 15 8 15 8 18 6 18 5 21-4-4-8-10-2-3h-2l-1-3-8-7-8-8-13-10-15-10-15-8-2 1 10 15 8 16 5 15 4 18 1 8-8-16-8-11-11-12-1-2h-2l1 6 7 20 1 7-10-15-10-13-10-9-7-5-1 2 8 18 7 21 4 17 3 26 1 34h-2l-2-5-9-13-14-14-9-8-9-6-6-2 8 15 9 21 7 21 5 22 3 20h1l1-7v-43l6 12 6 18 5 25 2 28v10l3-4 8-20 6-22 4-21 1-8v-37l-4-25-4-16 5 5 9 13 9 14 7 12 6 16 2 9 3-4 2-12v-36l-4-24-7-25-4-10 1-1 4 4h2l2 4 11 13 11 16 7 12 7 14 7 18 7 22 5 25 2 15 1 19v26l3-3 7-16 6-22 3-22v-26l-3-24-4-18-8-23-10-23-8-16-4-7 7 4 12 11h2l1 3 6 5 5 5 5 6 5 5 8 11 3 4-1-9-8-30-5-15 6 8 8 14 8 16 6 15 9 27 4 17 4 22 2-1 4-25 1-10v-38l-3-22-6-27-9-25-4-9 1-1 8 7 13 11 17 12 15 9 6 3 3-1-10-13-12-20-10-21-24-54h2l2 4 14 14 5 6 8 7 9 8 14 10 16 8 17 6 4-1-11-13-11-17-8-16-7-17-5-15-10-24-11-21-12-16-4-6h-2l-2-4 7 2 11 8 6 4 5 5 13 12 4 2 2 4 8 8 5 7 1-3-7-16-9-17-7-10-6-8-12-14-15-15-8-6h2l18 6 15 3h14l15-1v-2l-16-5-16-8-18-11-13-10-11-9-20-20-1-2 13 5 15 7 17 10 3 1-2-5-10-11-7-8-20-20-14-11-13-8-5-3 9 1 16 4 18 6 10 5 3-1-8-7-12-10-1-2-9-5-14-8-8-3 14-10 10-9v-2h2l11-14 4-8-6 2-15 6-6 1 12-11 9-12 10-18 5-11-1-4-7 6-13 8-9 4 7-11 10-16 11-26 6-19 4-15 4-27 2-25v-19l-2-29-4-27-6-27-8-27-4 2-2 4-4 2-8 8-20 15-11 8-17 11-17 10-24 13-16 9-25 14-14 9-14 10-12 9-5 4 1-5 4-12 8-16-4 2-11 8-11 9-13 11-6 5v2l-4 2-16 16-5 6 3-12 2-7-5 2-15 9-10 5 10-10 7-8 8-11 2-4-5 2-11 5-11 3-17 1-32-2-11 1-2 1 4-5 14-9 17-7v-1h-15l-20 2-15 4-22 8-1-1 11-13 10-9 7-5v-1h-10l-15 2-21 5-20 7-17 7-3 2 6-10 11-13 2-2-7 1-16 7-15 10-10 9-6 5-10-10-14-10-14-8-13-4-2 1 8 8 9 12 1 4-12-6-19-7-12-4-25-5-17-1 5 5 11 9 9 10 3 6-25-10-17-4-15-1h-17l3 2 17 8 10 7 4 3h-22l-23 2h-9l-10-2-15-5-6-4h-2l2 5 8 10 9 10 5 6-16-8-9-6-2-1 1 7 5 15-19-19-5-6-8-7-7-7-11-9-17-13-5-3 2 5 8 16 4 12v3l-1-2h-2v-2l-13-10-17-12-13-8-23-13-22-12-21-12-22-13-17-12-11-8-17-14-12-12zm755 94m-508 25m-107 10m653 1m-716 4m413 36m-46 1m-23 2 1 2zm92 0m34 1m-160 1m-181 5m521 1m-145 7 1 2 1-2zm-268 19m49 11m1 1m206 0-11 7-11 9-14 16-8 13-5 11-5 14-1 10 4-4 13-19 9-15 7-11 8-12 13-16 3-3zm-205 1 6 8 10 14 11 18 12 19 9 12 6 9 1-4-8-24-8-15-9-12-11-12-11-9-6-4zm55 21 1 2zm1 2 3 11 10 27 8 26 8 16 8 17 2 7h1v-21l-3-21-6-17-10-19-14-19-6-7zm91 0m-1 1-9 11-11 16-9 17-6 19-2 12-1 24 2 3 5-14 11-21 5-15 5-16 8-25 3-11zm-519 5m338 0 4 3 8 4 10 7 14 10 15 15 8 10 13 16 3 2-1-7-8-16-6-10-9-10-5-5-15-10-16-6-11-3zm269 0-20 6-15 9-10 8-7 7-10 15-8 18-1 7 4-4 12-16 12-14 9-9 13-10 13-9 10-6 2-2zm-479 29m812 18m-418 3 1 2zm-441 2m583 4m-54 6m-197 5m-151 29m21-40 2 2 19 9 18 12 13 10 10 9 8 10 8 13 6 12 6 16 1 7-7-12-11-15-9-10-14-13-17-11-3 1 9 9 10 13 9 13v2l-10-10-15-10-17-8-15-5-13-3h-6l4 3 6 3h-32l-19 5v1l22 3 12 4 9 4h-18l-15 2-16 5-10 5-9 8-7 11-1 3v12l5 10 7 7 9 5 7 2 18 1 7-1-4-3-18-8 10-1h12l21 3 16 5 13 5 3-1-5-6h-2v-2l-10-8-11-9-17-9-16-5h12l14 3 17 6 13 7 13 10 9 7 5 5 21 27 11 12 5 5 9 8 12 7 6 1h8l11-4 10-9 6-12 1-5v-13l-5-16-16-36-1-4 10 11 10 14 8 13 5 10 4 14 2 14 5-4 7-10 4-9 1-11-3-18 5 14 2 2-1-11-8-24-9-17-13-18-9-10-3-3 2 6 8 20 2 7v4l-6-10-10-14-13-16-6-7-5-5-9-8-17-12-12-7-11-5 1 3h2l1 3h2l2 4 10 11 6 9-1 1-8-7-15-9-16-8-15-6-20-5zm377 1-21 6-21 9-14 8-12 9-3 2 6-10 12-14 3-4-6 2-13 7-9 6-16 12-4 4v2l-4 2-7 8-13 17-9 12-5 8 1-8 6-16 4-8-1-3-8 10-8 9-10 17-9 19-5 18v7l2-3 3-5-1 6v17l5 10 9 11 3 2 1-13 6-19 7-13 8-12 11-13 6-6-2 6-9 19-8 20-3 14v11l3 10 6 8 9 8 9 3h9l11-4 11-8 12-11 7-8 8-10 8-11 9-10 12-11 12-9 16-8 14-5 15-3h11l-18 6-16 9-17 14-9 9v2l27-9 14-3 9-1h14l9 1-23 11v1h16l14-2 14-7 8-8 4-8v-11l-5-10-11-12-11-6-11-4-10-2-24-1h-5l16-6 14-3 13-2-4-2-17-4h-31l12-6-4-1-20 5-19 7-14 8-11 8-9 9 2-5 12-17 12-13 1-2-4 1-12 7-10 9-13 13-10 13-10 15-2 4 1-6 6-17 10-19 12-16 7-7 2-1v-2h2v-2l4-2 17-13 15-9 13-6zm-247 49m122 1m243 5 3 3 17 8 19 8 13 6 10 5h3l-7-7-14-10-14-7-13-4zm-611 0-16 3-16 6-16 10-13 12h3l16-8 16-7 29-13 3-3zm-167 14m867 40m-736 2-16 4-12 6-13 10-9 9v2h-2l-4 7 6-2 22-13 14-7 35-12 4-2-1-1-9-1zm675 0-10 2 4 2 35 12 19 10 17 10 5 2-4-6-9-10-14-11-16-8-13-3zm160 9m-722 13m53 1m-99 9 2 4 11 8h-19l-16 4-14 7-9 7 3 1 10-3 7-1h20l4 1-12 5-12 8-13 12-5 7v2l6-3v-2l6-2 14-7 16-3h10l-17 9-12 9-7 6-9 11-8 14-1 4 6-4 12-9 6-3-9 16-5 13-3 10h2l8-11 9-10 11-9 5-3-5 10-5 17-2 15v19l3 14h1l4-15 9-21-3 17v18l3 14 2 4 1-20 3-16 2 18 4 16 4 11 6 10 2-3 5-12 5-8 4-6 5-5 8-7 21-14 10-5v2l-8 10-10 15-8 14-6 15-5 23 1 2 9-16 11-13 8-7-1 6-7 21-4 21-1 9v19l2 11 2-4 5-22 1-5h2l1 10 5 21 7 20 6 14 1-3-6-34-2-15-3-15v-5l4 5 3 3 2-18 1-11v-12l-5-26h2l2 6 5 8 2-1 6-18 8-16 7-11 9-12 18-21h-5l10-9 10-10 2-1-1-2-20 3-20 6-18 6-6 1h-19l-15-4-15-6-16-10-5-5 17 7 1-2-5-5-5-8-6-16 1 1 8 11 11 12 14 9 13 5 5 1h16l9-2v-1l-16-3-9-4-9-6-3-1h3l9 3 16 3h21l9-2 5-2v-1l-22-1-15-4-12-6-9-7-3-1-2-4-6-8-7-14-5-16-2 3v13l2 11 3 9-7-8-13-22-5-5-7-5-16-8zm554 0m-3 1-24 12-10 9-6 10-7 12-6 8 3-10 1-5v-20l-2 3-8 20-7 11-7 8-11 8-13 6-12 3-22 1 2 2 14 3h21l18-4 6-2-8 6-13 5-14 3 1 2 4 1h20l13-4 10-5 11-8 8-8 8-11-4 11-7 11-4 6 9-3 10-4-11 9-11 6-17 7-12 3h-19l-17-4-24-8-14-3-12-1 17 17 4 3h3l-1 1-6-1 2 4 7 7 7 9h2l2 4 10 13 8 13 8 18 4 13 3-4 6-9-1 11-2 11v21l2 25 3-3 3-6v12l-6 39-3 14v5l3-4 7-19 6-21 4-20 7 24 2 7h1l1-8v-25l-4-23-8-27-1-4 12 11 10 13 5 11h1v-7l-4-17-8-18-10-17-12-17-2-4 19 10 14 10h2v2l5 4 1 2h2l2 4 3 4h2l2 5 7 16 2 4 2-3 5-11 5-17 4-23 2 12 1 23h1l1-5h1l2-16v-14l-3-18h2l1 5 8 21 3 9 2-4 1-6v-25l-3-18-5-16-1-4 9 7 5 6h2l1 3 5 5 6 7 3 3-4-17-8-17-4-6 11 7 13 12 2 1-2-6-10-16-11-13h-2v-2l-13-10-15-8-3-1h10l15 3 12 5 10 6 5 4 2-1-8-10-7-7-14-10-10-5-6-2 9-1h11l17 2 9 2-5-5-17-9-13-4-7-1-17-1 11-7 2-3zm-618 2m688 0m-745 3m209 0-4 5-1 4v14l5 13 9 10 9 6 7 2h15l11-4 10-6-1-4-12-11-11-9-13-10-19-9zm593 0m-213 1-12 5-13 8-13 10-12 11-7 7 5 5 10 5 6 2h17l12-6 3-2v-2l4-2 6-8 3-8 1-14-4-11zm-511 24m338 2-10 16v2h-2l-2 3-3-1-13-19-6 5v2h-2v2h-2v2l-4 2-5 5 10 6 9 7 7 12 3 9v4l-8-9-12-9-10-5-7-2h-14l-10 4-4 4 9 4 12 7 6 5 8 11 6 12-8-7-10-8-13-6-12-3h-11l-11 6-7 4v2l18 1 14 5 11 7 8 8 9 13 5 11-15-15h-2v-2l-14-9-12-5-4-1h-16l-10 3-14 9-7 6-3 5 9-3 8-2h13l10 3 13 8 7 7 9 14-1-1h-2v-2l-11-8-11-6-8-3-4-1h-13l-11 3-10 5-12 11-6 10-2 7 14 8 7 6 9 12 7 15-5-5-9-10h-2l-1-3-10-7-10-3-4 5v14l4 11 9 14 6 8h2l2 4 7 8-9-5-10-9-3-1v-2h-2v-2l-11-11h-2v11l4 15 6 12 10 11 7 8 3 1 1 3h2v2l11 9-4-1-15-9-15-11-1 3 8 13 8 8 16 11 14 8 21 10 21 6 17 2 17-1 25-5 5-2v-10l-19-6-14-6-12-8h-2l-1-3-7-6-1-2h-2v-2h-2l-2-4-11-12-7-14-1-5v-15l4-13 9-14 5-4 17-7 15-4 18-3h37l22 4 17 5 11 6 6 5 8 13 4 14v8l-3 14-5 9-8 9v2h-2l-7 8-5 6-9 7-12 7-15 6-14 4-1 1v9l7 3 18 4 6 1h26l18-4 17-6 24-13 15-10 10-9 6-8 4-7-1-2-23 15-13 7 5-5 3-2v-2l4-2 5-4 4-5 13-13 8-13 4-13v-15h-2l-7 8-12 12-12 9-4 2 9-11 8-9 11-19 4-11-2-11-3-3-7 1-8 4-12 11-8 8v-3l6-11 7-8v-2h2l5-5 10-7 4-2-2-6-6-11-6-7-13-8-13-4h-15l-16 6-14 10-5 4 5-9 9-10 9-6 8-4 8-2h13l13 4h3l-5-5-8-7-14-8-7-2h-14l-15 5-13 8-13 11-7 7 1-3 8-14 10-12 10-7 8-4 11-3 18-1-5-4-10-6-6-2h-13l-12 4-11 6-11 9v2l-4 2 2-6 5-9 9-10 10-7 11-4 3-2-8-6-6-2h-15l-13 5-11 7-10 10-3 4 1-7 5-12 6-9 13-9 4-2-5-5-8-7-5-7zm-336 29 1 2zm-67 13m775 0m-245 1m213 9m1 1m-679 12m-1 1m-214 3m1076 0 1 2zm-667 6m-224 18-8 6-8 8v2l5-2 11-10 2-4zm705 0 3 6 13 10 4 1-6-7-7-7-5-3zm-219 10m-504 6 1 2 1-2zm714 45m-38 28m-76 4m-532 26m605 0m1 1 1 2zm-357 7-5 3v1l14 3 6 4 7 9 1 7-1 3h-16l2 4 6 4h8l5-5 1-3v-11l-4-8-5-5-9-6zm99 0-9 5-6 7-4 9v9l4 6 5 2 9-2 3-3v-2l-16-1 1-8 5-8v-2l4-2 7-4 11-1-3-4-3-1zm400 44m-263 7 1 2zm19 19-12 25-5 14-4 10-9 25-4 13-3 8-8 25-6 23 2-25 5-38 7-36 4-18-1-4-9 17-6 16-6 21-9 45-5 39-6 64-3 15-5 12-7 12-11 12-14 10-16 8-15 5-14 3-8 1 1 2 16 4 2 1-9 2-28 3h-30l-38-5 6-2 15-4v-1l-20-3-21-7-16-9-12-9-8-8-7-11-6-13-4-18-5-60-5-38-6-34-9-35-6-16-9-17-1 4 4 15 9 53 3 23 2 19v5l-12-39-13-40-16-42-10-21h-1l-3 41-1 7v41l2 14h2l3-21 5-16 2-7 8 39 7 28 5 32 1 11 2-2 2-12 2-28 5 19 7 35 4 22 2 21v27l-3 23-1 4 4-2 10-13 1 4-1 30 5-5 7-8 2-1v17l2 15 3 11 7 18 3 6h1l1-15 5-20h2l2 11 6 16 8 15 2 3h2l2 4 3 3v-23l2-11 1-1 6 16 6 11 10 13 14 14 1 2 2-1-4-13-2-12v-13l1-2 5 12 7 11 12 16 8 16 4 7 2-3 8-16 18-26 6-10 3-7v15l-3 16-2 9 3-1v-2h2v-2h2v-2h2l7-8 10-13 8-14 5-12h1l1 5v22l-1 8 5-5 8-11 8-16 5-16 1-4 2 2 4 16 1 16 3-3 6-15 6-20 3-28 8 8 4 6 2-1-3-35h2l2 5 9 10 1-2-2-12-1-14v-19l2-24 5-29 8-40 2-8 1 1 2 23 3 15h2l3-31 7-31 7-30 3-16 4 11 5 22 2 10h1l2-14v-40l-3-32v-18zm-325 9-2 14v28l3 22 5 18 7 16 8 12 3 2 2-31 3-18 4-17 2-8h1v-10l-4-8-4-3h-2v-2l-9-5-12-8zm247-1-8 6-16 10-10 9-1 2v10l6 19 4 21 2 23v11l2 2 9-15 7-15 6-21 2-13v-36l-2-13zm45 12m-336 2 1 2zm95 8-4 5-3 9v7l4 15 8 17 2 1 6-17 4-12v-8l-6-12-4-4zm141 0-5 5-6 10-1 6 3 12 7 21h2l8-17 4-14v-11l-4-9-2-3zm-111 6-4 4-4 8 1 9 4 10 7 11 4-4 5-13 1-8-3-10-4-6zm27 0-6 7-2 4v11l4 10 5 7 4 2 8-16v-11l-5-10-4-4zm27 0-4 5-4 10v8l5 12 3 5 3 1 6-8 4-10 1-9-6-11-4-3zm28 0-5 5-4 7v11l6 16 1 2 4-1 7-12 3-11-1-8-7-9zm-273 6-10 10-3 6-2 11v7l2-1v-2h2l12-29 1-2zm467 1 2 6 6 14 4 9 3 5 2-1-1-13-4-9-6-7h-2v-2zm-471 35m-2 1-13 10-6 8-5 8-6 18-2 18 2 22 2 7h1l5-35 5-18 5-12 8-15 5-9 1-2zm478 0 7 11 8 16 6 16 4 16 4 32h2l3-20v-15l-2-14-5-14-7-12-7-8-11-8zm-647 40m508 36-8 22-5 10-7 9-10 8-2 16 3 9 5 5 6 3h7l6-4 5-6 4-9 3-14 1-15-2-18-4-15zm-200 1-4 15-2 18 1 16 4 16 6 11 7 5h8l8-4 4-5 2-4v-12l-2-8-12-10-7-11-8-19-3-8zm46 59-4 5-5 10v7l4 9 5 5 5-2 3-5 1-8-3-14-3-7zm107 0-3 5-4 16 1 7 4 6 5 2 5-4 4-10v-7l-5-10-5-5zm-86 7-6 11-1 8 3 7 5 5 3 1 5-4 2-6-1-8-8-14zm65 0-6 13-2 9 5 9 4 1 7-6 2-5v-8l-6-11zm-19 3-6 7-4 8v7l4 7 6 2 6-5 3-7-1-7-6-11zm-25 1-4 5-4 7 1 7 5 8 4 2 5-1 4-7 1-6-8-13z" fill="#040403"/>
<path transform="translate(605,949)" d="m0 0h9l11 4 7 5v2l3 1v2h2l7 14 4 15 7-21 7-10 7-6 11-5 5-1h8l10 4 5 3 3 5v12l-3 15-6 16-6 9-9 10-7 4-12 5-11 2h-12l-16-2-7-2v-2l-5-1-10-6-7-7-6-10-6-17-2-9v-16l3-5 9-6z" fill="#242523"/>
<path transform="translate(545,1078)" d="m0 0h2l5 5 8 4 14 2 6 5 10 5 28 6 8 1h41l20-2 6-2 15-3 11-6 6-4 12-2 10-6 2-3h2l-2 5h-2l-2 5-9 9-13 8-17 8-22 5-22 2h-28l-21-2-15-3-14-5-16-8-9-6-12-13z" fill="#242523"/>
<path transform="translate(623,607)" d="m0 0 7 6 7 7 2 1v2l4 2 5 3 5-2 18-18v3l-9 16-5 11-6 22-2 7-2-1-6-23-7-16-7-12-4-6z" fill="#0B0B0A"/>
<path transform="translate(643,677)" d="m0 0h10l17 3 18 6 1 2h-82l1-2 24-7z" fill="#0C0C0B"/>
<path transform="translate(851,587)" d="m0 0 2 1-9 7-13 5-7 1-1-3 5-5 18-4z" fill="#0E0F0D"/>
<path transform="translate(501,790)" d="m0 0 6 1 5 4 3 3v2l4 2 9 8-2 1-11-6-14-9 1-4z" fill="#181817"/>
<path transform="translate(795,747)" d="m0 0 4 1-1 5-11 10-9 6-2-1 9-11 7-8z" fill="#121311"/>
<path transform="translate(1289,1311)" d="m0 0h1v15h-16l6-7 8-7z" fill="#040403"/>
<path transform="translate(501,746)" d="m0 0 5 5 2 4h2l8 10 2 3-5-2-10-7-8-7 1-4h2z" fill="#131412"/>
<path transform="translate(1080,249)" d="m0 0 1 4-5 16-5 13-3 4 1-10 1-5 3-1 1-6-5 3 2-4z" fill="#141513"/>
<path transform="translate(373,638)" d="m0 0 1 2-3 16-1 12h-1l-2-9-2-4 7-16z" fill="#181817"/>
<path transform="translate(541,448)" d="m0 0 3 4 4 13-1 4-10-16-1-2 4 1-1-3z" fill="#151514"/>
<path transform="translate(1078,753)" d="m0 0 8 10 4 6-2 4h-3l-2-3-5-14z" fill="#222321"/>
<path transform="translate(601,640)" d="m0 0 5 3 7 13-1 2-12-12z" fill="#121311"/>
<path transform="translate(796,422)" d="m0 0h3l-1 2-2 1 1 2-4 2v4h-2l1 3-10 10-1-3 11-16z" fill="#20211F"/>
<path transform="translate(367,868)" d="m0 0h1l-1 40h-1l-1-20h-1l-1-13z" fill="#20211F"/>
<path transform="translate(210,648)" d="m0 0 2 3h2l1 3-12 11-3 2 2-5z" fill="#1A1B19"/>
<path transform="translate(892,567)" d="m0 0 1 3-5 12-3 3-2-2-3 3-2 3-1-3 9-10z" fill="#181917"/>
<path transform="translate(851,587)" d="m0 0 2 1-9 7-4 2-4-1 2-5z" fill="#191918"/>
<path transform="translate(781,798)" d="m0 0 2 3v3l-16 8 2-4 5-4h2v-2z" fill="#242423"/>
<path transform="translate(1096,359)" d="m0 0h3l-1 2-3 3 5-1v3l-11 4-4-1z" fill="#212120"/>
<path transform="translate(367,205)" d="m0 0 4 2 6 7 2 1v2l2 1v3h-2l-3-3-3-1-6-9z" fill="#252524"/>
<path transform="translate(928,868)" d="m0 0 4 5 2 7-1 2h-2l-1 12h-1z" fill="#2A2B29"/>
<path transform="translate(922,638)" d="m0 0 1 2h2l5 14-2 1-2-1-1 4-3-16z" fill="#1C1D1C"/>
<path transform="translate(753,454)" d="m0 0h2l1 4-8 14h-1v-6l4-11z" fill="#1C1D1B"/>
<path transform="translate(991,228)" d="m0 0 2 4 3 2-17 2v-2z" fill="#2A2A29"/>
<path transform="translate(1117,621)" d="m0 0 2 3 4 10-1 3-9-11z" fill="#20201F"/>
<path transform="translate(1075,263)" d="m0 0 2 4-6 15-3 4 1-10 1-5 3-1z" fill="#20211F"/>
<path transform="translate(405,489)" d="m0 0h12l4 2v1l-20 1 1-3z" fill="#212220"/>
<path transform="translate(958,779)" d="m0 0 2 4 2 7v6l-8-12 1-4z" fill="#1A1B19"/>
<path transform="translate(188,714)" d="m0 0 1 2-3 8-4-2-2 3-8 6v-3l11-10z" fill="#161615"/>
<path transform="translate(1085,652)" d="m0 0 3 1v2l4 1 5 9-1 2-3-3v-2l-4-2-4-4z" fill="#212220"/>
<path transform="translate(232,596)" d="m0 0 1 2-2 4-9 6h-2l2-4 5-6z" fill="#171816"/>
<path transform="translate(1086,491)" d="m0 0h3l7 8 2 3-4-1-10-5 2-1z" fill="#141413"/>
<path transform="translate(727,461)" d="m0 0 1 3-4 8-3-1-1 2-4 1 2-4z" fill="#2A2B29"/>
<path transform="translate(672,489)" d="m0 0 1 3-2 21-3-4-1-3 1-9z" fill="#292A28"/>
<path transform="translate(1040,389)" d="m0 0 8 1 4 1v2l-5 1h-7v-2l-4-1z" fill="#212220"/>
<path transform="translate(811,962)" d="m0 0 2 4v9h-2v2l-3-1 2-11z" fill="#1F1F1E"/>
<path transform="translate(91,734)" d="m0 0h6l1 2-4 1-26-1v-1z" fill="#595A58"/>
<path transform="translate(1067,597)" d="m0 0 4 2 6 8h-3l-7-5-3-2h2z" fill="#1D1E1C"/>
<path transform="translate(713,200)" d="m0 0 3 1-6 8-5-1-1-3z" fill="#171716"/>
<path transform="translate(685,1182)" d="m0 0h1v16h-1l-1-5-4 1 3-9z" fill="#181817"/>
<path transform="translate(852,206)" d="m0 0 1 3 2 1-13 7-2-1 7-7 4-1z" fill="#191A18"/>
<path transform="translate(515,800)" d="m0 0 4 2 9 8-2 1-9-5z" fill="#1A1B19"/>
<path transform="translate(1116,649)" d="m0 0h2l5 5 2 5-5 1-4-9z" fill="#141513"/>
<path transform="translate(594,443)" d="m0 0 4 2 2 7v6l-4-5-2-6z" fill="#252624"/>
<path transform="translate(928,206)" d="m0 0v3l-6 9-3-1-1 3-1-4 7-7z" fill="#1C1D1B"/>
<path transform="translate(611,1182)" d="m0 0 2 1 2 8-3 2-1 5h-1v-13z" fill="#161715"/>
<path transform="translate(1192,645)" d="m0 0 4 2 4 3v2l3 1-6 3-5-10z" fill="#242523"/>
<path transform="translate(767,393)" d="m0 0 4 1-2 5-6 5-2-1z" fill="#171816"/>
<path transform="translate(614,208)" d="m0 0 5 2 5 6-2 2-4-1-4-7z" fill="#242523"/>
<path transform="translate(501,790)" d="m0 0 6 1 2 3-2 1 1 4-5-2-2-2 1-3z" fill="#0E0F0D"/>
<path transform="translate(983,172)" d="m0 0h2l-2 5-3 3-4 1-1 2-3-1v-2l10-7z" fill="#242523"/>
<path transform="translate(298,163)" d="m0 0 5 2 6 4v3h-2l-1 2-8-10z" fill="#191918"/>
<path transform="translate(373,638)" d="m0 0 1 2-3 16h-1v-5h-2l1-5z" fill="#1D1E1C"/>
<path transform="translate(623,607)" d="m0 0 7 6 4 5-4 2-7-11z" fill="#131312"/>
<path transform="translate(175,523)" d="m0 0v3l-9 7-3-1 1-2 1-3z" fill="#20201F"/>
<path transform="translate(207,492)" d="m0 0 4 1v4l-8 4-2-1z" fill="#171816"/>
<path transform="translate(152,322)" d="m0 0h2l6 12-5-1-3-3v-2h2z" fill="#3F403F"/>
<path transform="translate(995,164)" d="m0 0 2 1-3 4h-2l-2 4-3 2-2-4z" fill="#1F1F1E"/>
<path transform="translate(205,276)" d="m0 0h2l6 11h-2l-2 4z" fill="#2B2C2A"/>
<path transform="translate(568,459)" d="m0 0 9 9v3l-5-1-4-8z" fill="#252624"/>
<path transform="translate(1067,422)" d="m0 0 10 1 1 5-5-1-6-4z" fill="#1C1C1B"/>
<path transform="translate(203,363)" d="m0 0 3 1v2l4 2 3 3-10-2-3-2h2z" fill="#222221"/>
<path transform="translate(916,217)" d="m0 0 1 2-2-1zm-2 2m-2 1 3 1v2l-3-1zm-2 2 2 1-2 1zm-2 2 2 1-11 11v-3z" fill="#242423"/>
<path transform="translate(984,382)" d="m0 0 5 2 6 3v1h-8l-2-2-8-1v-1l7-1z" fill="#191A18"/>
<path transform="translate(920,355)" d="m0 0 8 1 2 1v2l-5 1-6-1z" fill="#1D1E1C"/>
<path transform="translate(212,209)" d="m0 0h1v18l-2 4-3-9 3 1z" fill="#2E2F2D"/>
<path transform="translate(1113,543)" d="m0 0 3 1v2l4 2 4 5-9-3 1-3h-2v-2l-3-1z" fill="#222321"/>
<path transform="translate(455,743)" d="m0 0 4 5v5h-3l-1 2-1-10z" fill="#191918"/>
<path transform="translate(210,648)" d="m0 0 2 3h2l1 3-5 3-3-1 1-4z" fill="#151514"/>
<path transform="translate(682,207)" d="m0 0 2 1-5 8-3-1-2 2-1-3z" fill="#242523"/>
<path transform="translate(457,893)" d="m0 0h1l1 11-5 1 2-10z" fill="#1D1D1C"/>
<path transform="translate(623,883)" d="m0 0h1l2 15h-3l-2-2v-6h2z" fill="#262725"/>
<path transform="translate(237,702)" d="m0 0 5 1-4 7-3 2 1-7z" fill="#292928"/>
<path transform="translate(477,994)" d="m0 0h1l1 14h-3l-1-2v-8z" fill="#2D2E2C"/>
<path transform="translate(543,457)" d="m0 0 3 1 2 7-1 4-5-9z" fill="#1E1F1D"/>
<path transform="translate(794,427)" d="m0 0 4 2 1 2-6 4h-2l2-7z" fill="#0B0B0A"/>
<path transform="translate(484,962)" d="m0 0 2 4v6l-2 5h-1v-14z" fill="#232422"/>
<path transform="translate(576,665)" d="m0 0 4 2 5 9h-2v-2h-2v-2l-4-2-2-2z" fill="#232422"/>
<path transform="translate(402,565)" d="m0 0h2l6 10-4 2-4-11z" fill="#292A28"/>
<path transform="translate(548,180)" d="m0 0 6 1 3 5-1 2-7-3 1-4z" fill="#212120"/>
<path transform="translate(697,447)" d="m0 0 5 1-5 9h-1z" fill="#171816"/>
<path transform="translate(900,210)" d="m0 0 1 3-4 8-3-3 2-4h2v-2h2z" fill="#272726"/>
<path transform="translate(1090,277)" d="m0 0 1 2-2 6h-2l-2 7-1-4 1-4z" fill="#232422"/>
<path transform="translate(1037,192)" d="m0 0 3 1-2 2 2 2-10 3 6-7z" fill="#2C2D2B"/>
<path transform="translate(996,990)" d="m0 0 3 2-3 5-4 4-2-1z" fill="#2C2D2B"/>
<path transform="translate(338,784)" d="m0 0 2 1-2 5-4 5 1-7 2-3z" fill="#222221"/>
<path transform="translate(1112,619)" d="m0 0 5 1-1 4-4 1-1-4z" fill="#0D0D0C"/>
<path transform="translate(226,422)" d="m0 0 3 1-7 5h-2l-1-5z" fill="#1B1C1A"/>
<path transform="translate(529,1216)" d="m0 0 4 5 5 6-1 2-4-3-4-7z" fill="#2C2D2B"/>
<path transform="translate(962,810)" d="m0 0 3 1 3 5-5 2z" fill="#131312"/>
<path transform="translate(338,779)" d="m0 0 4 1 1 2-2 3-4 1z" fill="#131312"/>
<path transform="translate(686,799)" d="m0 0 4 1z" fill="#5A5B59"/>
<path transform="translate(783,1193)" d="m0 0" fill="#919190"/>
<path transform="translate(441,1067)" d="m0 0" fill="#FEFEFE"/>
<path transform="translate(321,978)" d="m0 0" fill="#242523"/>
<path transform="translate(321,971)" d="m0 0" fill="#919190"/>
<path transform="translate(1027,943)" d="m0 0" fill="#919190"/>
<path transform="translate(605,799)" d="m0 0 2 1z" fill="#919190"/>
<path transform="translate(600,458)" d="m0 0" fill="#919190"/>
<path transform="translate(973,316)" d="m0 0 2 1z" fill="#242523"/>
<path transform="translate(650,1306)" d="m0 0" fill="#FEFEFE"/>
<path transform="translate(641,1296)" d="m0 0" fill="#FEFEFE"/>
<path transform="translate(611,1257)" d="m0 0" fill="#242523"/>
<path transform="translate(741,1247)" d="m0 0" fill="#242523"/>
<path transform="translate(550,1243)" d="m0 0" fill="#FEFEFE"/>
<path transform="translate(732,1239)" d="m0 0" fill="#FEFEFE"/>
<path transform="translate(754,1234)" d="m0 0" fill="#FEFEFE"/>
<path transform="translate(758,1229)" d="m0 0" fill="#FEFEFE"/>
<path transform="translate(763,1225)" d="m0 0" fill="#FEFEFE"/>
<path transform="translate(789,1210)" d="m0 0" fill="#242523"/>
<path transform="translate(773,1208)" d="m0 0" fill="#FEFEFE"/>
<path transform="translate(505,1206)" d="m0 0" fill="#242523"/>
<path transform="translate(795,1205)" d="m0 0" fill="#242523"/>
<path transform="translate(517,1204)" d="m0 0" fill="#FEFEFE"/>
<path transform="translate(784,1202)" d="m0 0" fill="#FEFEFE"/>
<path transform="translate(517,1201)" d="m0 0" fill="#242523"/>
<path transform="translate(516,1199)" d="m0 0" fill="#FEFEFE"/>
<path transform="translate(515,1197)" d="m0 0" fill="#242523"/>
<path transform="translate(459,1170)" d="m0 0" fill="#242523"/>
<path transform="translate(836,1168)" d="m0 0" fill="#FEFEFE"/>
<path transform="translate(466,1164)" d="m0 0" fill="#242523"/>
<path transform="translate(482,1151)" d="m0 0" fill="#FEFEFE"/>
<path transform="translate(845,1094)" d="m0 0" fill="#FEFEFE"/>
<path transform="translate(401,1069)" d="m0 0" fill="#FEFEFE"/>
<path transform="translate(898,1066)" d="m0 0" fill="#242523"/>
<path transform="translate(888,1065)" d="m0 0" fill="#FEFEFE"/>
<path transform="translate(830,1065)" d="m0 0" fill="#242523"/>
<path transform="translate(918,1050)" d="m0 0" fill="#242523"/>
<path transform="translate(926,1042)" d="m0 0" fill="#FEFEFE"/>
<path transform="translate(258,1032)" d="m0 0" fill="#FEFEFE"/>
<path transform="translate(1038,1031)" d="m0 0" fill="#FEFEFE"/>
<path transform="translate(937,1031)" d="m0 0" fill="#FEFEFE"/>
<path transform="translate(255,1030)" d="m0 0" fill="#FEFEFE"/>
<path transform="translate(939,1029)" d="m0 0" fill="#242523"/>
<path transform="translate(896,1029)" d="m0 0" fill="#FEFEFE"/>
<path transform="translate(319,1019)" d="m0 0" fill="#242523"/>
<path transform="translate(980,1015)" d="m0 0" fill="#242523"/>
<path transform="translate(984,1014)" d="m0 0" fill="#FEFEFE"/>
<path transform="translate(984,1010)" d="m0 0" fill="#FEFEFE"/>
<path transform="translate(972,1007)" d="m0 0" fill="#242523"/>
<path transform="translate(879 1e3)" d="m0 0" fill="#FEFEFE"/>
<path transform="translate(1063,997)" d="m0 0" fill="#FEFEFE"/>
<path transform="translate(1066,993)" d="m0 0" fill="#FEFEFE"/>
<path transform="translate(330,993)" d="m0 0" fill="#FEFEFE"/>
<path transform="translate(963,992)" d="m0 0" fill="#242523"/>
<path transform="translate(1067,991)" d="m0 0" fill="#242523"/>
<path transform="translate(330,989)" d="m0 0" fill="#FEFEFE"/>
<path transform="translate(321,981)" d="m0 0" fill="#FEFEFE"/>
<path transform="translate(290,981)" d="m0 0" fill="#FEFEFE"/>
<path transform="translate(321,975)" d="m0 0" fill="#242523"/>
<path transform="translate(290,975)" d="m0 0" fill="#FEFEFE"/>
<path transform="translate(285,963)" d="m0 0" fill="#242523"/>
<path transform="translate(282,958)" d="m0 0" fill="#FEFEFE"/>
<path transform="translate(1119,942)" d="m0 0" fill="#FEFEFE"/>
<path transform="translate(1021,939)" d="m0 0" fill="#FEFEFE"/>
<path transform="translate(204,937)" d="m0 0" fill="#242523"/>
<path transform="translate(1019,936)" d="m0 0" fill="#242523"/>
<path transform="translate(1092,935)" d="m0 0" fill="#FEFEFE"/>
<path transform="translate(203,933)" d="m0 0" fill="#242523"/>
<path transform="translate(1133,930)" d="m0 0" fill="#FEFEFE"/>
<path transform="translate(186,904)" d="m0 0" fill="#FEFEFE"/>
<path transform="translate(192,890)" d="m0 0" fill="#FEFEFE"/>
<path transform="translate(889,889)" d="m0 0" fill="#FEFEFE"/>
<path transform="translate(611,800)" d="m0 0" fill="#FEFEFE"/>
<path transform="translate(691,798)" d="m0 0" fill="#FEFEFE"/>
<path transform="translate(115,787)" d="m0 0" fill="#FEFEFE"/>
<path transform="translate(520,768)" d="m0 0" fill="#242523"/>
<path transform="translate(1209,767)" d="m0 0" fill="#242523"/>
<path transform="translate(1207,765)" d="m0 0" fill="#FEFEFE"/>
<path transform="translate(1205,763)" d="m0 0" fill="#FEFEFE"/>
<path transform="translate(1230,736)" d="m0 0" fill="#FEFEFE"/>
<path transform="translate(1235,735)" d="m0 0" fill="#242523"/>
<path transform="translate(1242,734)" d="m0 0" fill="#FEFEFE"/>
<path transform="translate(1182,732)" d="m0 0" fill="#FEFEFE"/>
<path transform="translate(1235,705)" d="m0 0" fill="#FEFEFE"/>
<path transform="translate(1226,697)" d="m0 0" fill="#FEFEFE"/>
<path transform="translate(1224,694)" d="m0 0" fill="#FEFEFE"/>
<path transform="translate(1214,683)" d="m0 0" fill="#FEFEFE"/>
<path transform="translate(83,682)" d="m0 0" fill="#242523"/>
<path transform="translate(711,676)" d="m0 0" fill="#242523"/>
<path transform="translate(87,676)" d="m0 0" fill="#FEFEFE"/>
<path transform="translate(92,667)" d="m0 0" fill="#242523"/>
<path transform="translate(97,654)" d="m0 0" fill="#242523"/>
<path transform="translate(81,626)" d="m0 0" fill="#FEFEFE"/>
<path transform="translate(677,624)" d="m0 0" fill="#242523"/>
<path transform="translate(1077,608)" d="m0 0" fill="#242523"/>
<path transform="translate(219,608)" d="m0 0" fill="#242523"/>
<path transform="translate(672,607)" d="m0 0" fill="#242523"/>
<path transform="translate(1205,599)" d="m0 0" fill="#242523"/>
<path transform="translate(351,592)" d="m0 0" fill="#242523"/>
<path transform="translate(897,588)" d="m0 0" fill="#242523"/>
<path transform="translate(893,566)" d="m0 0" fill="#242523"/>
<path transform="translate(867,565)" d="m0 0" fill="#242523"/>
<path transform="translate(1124,553)" d="m0 0" fill="#242523"/>
<path transform="translate(173,552)" d="m0 0" fill="#242523"/>
<path transform="translate(1165,479)" d="m0 0" fill="#FEFEFE"/>
<path transform="translate(1172,472)" d="m0 0" fill="#FEFEFE"/>
<path transform="translate(548,469)" d="m0 0" fill="#FEFEFE"/>
<path transform="translate(132,459)" d="m0 0" fill="#242523"/>
<path transform="translate(695,457)" d="m0 0" fill="#FEFEFE"/>
<path transform="translate(1160,453)" d="m0 0" fill="#FEFEFE"/>
<path transform="translate(136,452)" d="m0 0" fill="#FEFEFE"/>
<path transform="translate(134,449)" d="m0 0" fill="#FEFEFE"/>
<path transform="translate(137,446)" d="m0 0" fill="#FEFEFE"/>
<path transform="translate(142,442)" d="m0 0" fill="#FEFEFE"/>
<path transform="translate(759,405)" d="m0 0" fill="#242523"/>
<path transform="translate(535,405)" d="m0 0" fill="#242523"/>
<path transform="translate(1125,404)" d="m0 0" fill="#FEFEFE"/>
<path transform="translate(760,404)" d="m0 0" fill="#242523"/>
<path transform="translate(171,402)" d="m0 0" fill="#FEFEFE"/>
<path transform="translate(1114,398)" d="m0 0" fill="#242523"/>
<path transform="translate(176,397)" d="m0 0" fill="#FEFEFE"/>
<path transform="translate(180,395)" d="m0 0" fill="#242523"/>
<path transform="translate(173,389)" d="m0 0" fill="#FEFEFE"/>
<path transform="translate(1131,375)" d="m0 0" fill="#FEFEFE"/>
<path transform="translate(157,360)" d="m0 0" fill="#242523"/>
<path transform="translate(147,324)" d="m0 0" fill="#242523"/>
<path transform="translate(149,320)" d="m0 0" fill="#FEFEFE"/>
<path transform="translate(1150,318)" d="m0 0" fill="#FEFEFE"/>
<path transform="translate(141,299)" d="m0 0" fill="#FEFEFE"/>
<path transform="translate(1144,284)" d="m0 0" fill="#FEFEFE"/>
<path transform="translate(1146,283)" d="m0 0" fill="#FEFEFE"/>
<path transform="translate(152,281)" d="m0 0" fill="#FEFEFE"/>
<path transform="translate(1152,276)" d="m0 0" fill="#FEFEFE"/>
<path transform="translate(1147,268)" d="m0 0" fill="#FEFEFE"/>
<path transform="translate(613,207)" d="m0 0" fill="#242523"/>
<path transform="translate(929,205)" d="m0 0" fill="#242523"/>
<path transform="translate(930,204)" d="m0 0" fill="#FEFEFE"/>
<path transform="translate(366,204)" d="m0 0" fill="#242523"/>
<path transform="translate(365,203)" d="m0 0" fill="#242523"/>
<path transform="translate(853,167)" d="m0 0" fill="#FEFEFE"/>
<path transform="translate(855,166)" d="m0 0" fill="#FEFEFE"/>
<path transform="translate(891,160)" d="m0 0" fill="#FEFEFE"/>
<path transform="translate(891,158)" d="m0 0" fill="#242523"/>
<path transform="translate(874,154)" d="m0 0" fill="#FEFEFE"/>
<path transform="translate(331,130)" d="m0 0" fill="#FEFEFE"/>
<path transform="translate(157,60)" d="m0 0" fill="#FEFEFE"/>
</svg>
